<svg xmlns="http://www.w3.org/2000/svg" viewBox="0 0 3689.5 2064.77"><g id="Lag_2" data-name="Lag 2"><g id="Lag_1-2" data-name="Lag 1"><path d="M1433.73,2064.77c-4.11-1.89-8.06-4.79-12.38-5.52-45.38-7.65-91.13-13.44-136.15-22.75-48.94-10.12-97.7-21.79-145.67-35.73-62.27-18.1-124.29-37.45-185.33-59.29-73.53-26.3-146.91-53.89-209.88-102a137.75,137.75,0,0,1-28.42-29.68c-13.8-19.56-13.22-37.78,6-51.85,21.9-16.06,46.27-30.77,71.82-39.53,95.05-32.62,193.22-33.21,292.09-23.29,80.59,8.09,157.31,31.76,234.61,54.12a1537.65,1537.65,0,0,0,155.93,36.24c81.46,14.58,163.21,28.67,245.4,37.81,95.09,10.57,190.75,15.14,286.46,4.23,50.9-5.8,102.09-9.15,152.89-15.6,29.59-3.76,58.64-11.61,88-17.34,25.94-5.07,51.85-10.4,77.95-14.49,71.16-11.13,142.29-22.54,213.66-32.21,89.63-12.15,179.24-26.75,270.28-18.23,14.76,1.39,33.37,1.65,37.28,19,3.76,16.67-13.69,23.72-25.11,31.53-48,32.84-102,53.17-156.12,72.87-56,20.41-112.11,41.13-169.21,58.22s-115.38,30.55-173.42,44.4c-57.05,13.6-114.27,26.6-171.75,38.16-44.53,9-89.53,15.67-134.43,22.67-53.45,8.33-106.92,16.72-160.58,23.53-45.12,5.72-90.56,9-135.82,13.75-31.4,3.31-62.73,7.33-94.09,11Z"/><path d="M0,929.78C5.84,914.47,11.3,899,17.6,883.87,60.13,781.67,127.06,697.23,211.31,627c112.15-93.55,241.1-160.45,371.2-224.67,106.12-52.38,212.67-104,320.65-152.44C1036.67,190,1171,131.72,1306.67,77.1c67.95-27.34,139.36-46.53,210-66.38,28.4-8,59.1-10.91,88.72-10.71C1685,.56,1764.69,1.29,1844,7.12c80.87,5.94,161.62,15.82,241.81,28,87.39,13.31,174.71,28.43,260.88,48,105.48,23.92,208,58.27,307.43,101.46C2838,264.45,3016.41,355.23,3194,448.24c166.65,87.29,287.22,219.1,384.93,375.39,11.77,18.83,20,40.19,27.74,61.14,4.54,12.19,8,28.91-6,35.93-9.5,4.77-25.15,4-35.22-.59-15.91-7.2-31.84-17.44-43.57-30.23-44.41-48.39-87.69-97.85-130.36-147.78-58.39-68.34-110.7-142.1-178.74-201.78-26.83-23.53-53.66-48.24-84.15-66.21-86.53-51-174.11-100.38-262.91-147.33-75.58-40-152.18-78.52-230.67-112.29C2578.38,190.11,2518.36,173,2459,155.63c-51.25-15-103.45-27.11-155.74-38.07-45.61-9.55-91.91-15.82-137.94-23.29-35.76-5.81-71.47-12.17-107.42-16.63q-90.72-11.25-181.73-20.23c-51.46-5-103.05-10.81-154.66-11.6s-103.65.66-154.63,7.59c-57.91,7.87-115.6,20.14-172,35.53-63.58,17.36-127.06,36.81-188,61.63-109.47,44.58-218.3,91.15-325,141.87C759.1,350.73,657,437,574.25,544.34c-97.05,125.85-190.76,254.26-286.62,381-35.06,46.37-69.47,93.82-117.95,127.79-13.45,9.43-28.39,18.6-44,22.75C74.47,1089.49,27.21,1064,7,1014.66c-1.36-3.31-4.61-5.85-7-8.75Z"/><path d="M243.55,1697.86c-21.52-2.89-44.51-4.62-66.9-9.26-42.45-8.79-61.57-46.73-50.31-90.36,17.24-66.81,49.43-127.09,78.36-188.89,50.16-107.16,99.84-214.55,150.45-321.5,23.18-49,51.19-95.21,87.17-136.14,59.8-68,135.93-110.54,220-140.92,37.46-13.54,75.3-21.28,115.45-25,31.84-3,63.4-19.44,93-34.1C1001.56,687,1130.36,618.05,1262.39,556c81.9-38.47,167.11-71,253.07-99.44,70.1-23.2,143-39.29,215.59-53.33,97.7-18.88,197.25-20.44,296.12-13.1,59.28,4.4,117.86,18.58,176.66,28.91,41.9,7.36,83.83,14.8,125.42,23.7,66.27,14.17,132.46,28.8,198.32,44.74,50.69,12.26,101.44,24.89,151,40.88,54.45,17.56,108.17,37.75,161.2,59.26,129.21,52.43,245,126.76,352.09,215.85,98.35,81.81,199.53,160.23,298.31,241.55,55.1,45.36,112.09,88.92,156.88,145.65,20,25.3,37.92,52.11,41.68,84a124.29,124.29,0,0,1-8.39,60.12c-31.79,75.76-85.33,136.33-143,193.29-81.49,80.48-172,150.31-266.17,214.82-62.3,42.66-120,37.54-187.43-16.38-37.47-30-69.49-67.31-101.24-103.71-47.36-54.3-92.12-110.73-146.84-158.38-30.91-26.91-42.71-64.44-42.26-104.3.48-43.12,4.17-86.25,7.49-129.29,2.71-35.19,5.06-70.18-5.25-104.61-14.84-49.54-51.07-78.63-96.71-96.7-56.83-22.49-101.34-60.51-141.26-105.18-9.6-10.75-19.22-21.48-29.14-31.94-10.41-11-23.08-11.58-31,.58-13,20-26.58,40.68-33.65,63.06-19.67,62.3-34.75,126-54.12,188.46-38.37,123.64-110.28,220.26-225.9,284.14-94.07,52-185.89,108.35-286.3,147.42-52.74,20.52-107.26,39.17-162.68,49.39-51,9.4-104.58,11.45-156.31,7.42-53.61-4.17-96.68-37.13-135.73-73.13-71.68-66.08-128.81-144.21-185.48-222.81-47.8-66.3-95.6-132.63-145.12-197.65-45-59.07-91.85-74.91-181.78-51.26-59,15.51-104.18,49.7-127.24,106.87-9.42,23.35-15.63,50.47-14,75.27,3.3,50.86,13.56,101.22,19.64,152,5.35,44.63,10.13,89.58-17,130.25-22,33-54.53,51.54-91.07,61.5C651,1627.45,600.39,1638,549.87,1648.7c-55.09,11.64-110.23,23.33-165.77,32.39C338.15,1688.58,291.57,1692.28,243.55,1697.86ZM1858.49,856c33.6-4,67.41-6.72,100.77-12.2,55.9-9.18,95.49-40.53,118.39-92.52,11-25,3.63-46.37-22.08-56.26A571.38,571.38,0,0,0,1980,671.43c-74.35-17.25-149.06-21.91-224.32-3.91-30.26,7.23-56.44,18.86-73.91,46.14-33.62,52.5-23.93,91,32.62,117C1760.17,851.7,1808.62,855.8,1858.49,856Zm-1557,642.45c-39.82,2-55.53,13.17-52.92,47,.8,10.25-6,20.88-6.66,31.51-.89,13.51-4.46,31.81,2.55,39.89,17.43,20.1,43.75,28.81,70.17,24.27,53-9.11,105.22-22.26,158.12-31.86,47.38-8.6,76-35.12,85.29-81.94.92-4.65-3.61-14-7.59-15.36a232.06,232.06,0,0,0-44.82-10.5c-33.14-4.25-65.91-13.89-99.6,1.7-28.05,13-58,12.73-87.16.09C312.22,1500.36,304.75,1499.28,301.53,1498.41Z"/></g></g></svg>